<svg id="visual" viewBox="0 0 960 540" width="960" height="540" xmlns="http://www.w3.org/2000/svg" xmlns:xlink="http://www.w3.org/1999/xlink" version="1.1"><g><g transform="translate(527 201)"><path d="M81.7 -27.6C93.6 10.1 82.6 54.3 54.8 74.1C27.1 93.9 -17.2 89.3 -48.7 66.6C-80.1 43.8 -98.5 2.9 -88.3 -32.5C-78 -68 -39 -98 -2.1 -97.3C34.9 -96.6 69.8 -65.3 81.7 -27.6Z" stroke="#36927e" fill="none" stroke-width="20"></path></g><g transform="translate(238 286)"><path d="M43.9 -14.6C50.1 4.8 43.6 28 28.1 39.6C12.5 51.1 -12.2 51 -27.6 39.4C-43 27.9 -49.2 5 -43 -14.4C-36.9 -33.7 -18.4 -49.4 0.2 -49.5C18.8 -49.6 37.6 -34 43.9 -14.6Z" stroke="#36927e" fill="none" stroke-width="20"></path></g><g transform="translate(812 351)"><path d="M55.7 -19.8C63.1 4.5 53.6 32.7 33 48.4C12.3 64.1 -19.6 67.4 -40.8 52.8C-62.1 38.1 -72.8 5.5 -64.2 -20.5C-55.7 -46.6 -27.8 -66 -1.8 -65.4C24.2 -64.8 48.4 -44.2 55.7 -19.8Z" stroke="#36927e" fill="none" stroke-width="20"></path></g></g></svg>