<svg id="visual" viewBox="0 0 1920 520" width="1920" height="520" xmlns="http://www.w3.org/2000/svg" xmlns:xlink="http://www.w3.org/1999/xlink" version="1.1"><path d="M0 152L53.3 160.7C106.7 169.3 213.3 186.7 320 175.3C426.7 164 533.3 124 640 114.5C746.7 105 853.3 126 960 149.5C1066.7 173 1173.3 199 1280 186C1386.7 173 1493.3 121 1600 105.3C1706.7 89.7 1813.3 110.3 1866.7 120.7L1920 131L1920 0L1866.7 0C1813.3 0 1706.7 0 1600 0C1493.3 0 1386.7 0 1280 0C1173.3 0 1066.7 0 960 0C853.3 0 746.7 0 640 0C533.3 0 426.7 0 320 0C213.3 0 106.7 0 53.3 0L0 0Z" fill="#ffffff"></path><path d="M0 459L53.3 430.3C106.7 401.7 213.3 344.3 320 350.3C426.7 356.3 533.3 425.7 640 432.7C746.7 439.7 853.3 384.3 960 362.7C1066.7 341 1173.3 353 1280 365C1386.7 377 1493.3 389 1600 413.3C1706.7 437.7 1813.3 474.3 1866.7 492.7L1920 511L1920 129L1866.7 118.7C1813.3 108.3 1706.7 87.7 1600 103.3C1493.3 119 1386.7 171 1280 184C1173.3 197 1066.7 171 960 147.5C853.3 124 746.7 103 640 112.5C533.3 122 426.7 162 320 173.3C213.3 184.7 106.7 167.3 53.3 158.7L0 150Z" fill="#20b2a1"></path><path d="M0 521L53.3 521C106.7 521 213.3 521 320 521C426.7 521 533.3 521 640 521C746.7 521 853.3 521 960 521C1066.7 521 1173.3 521 1280 521C1386.7 521 1493.3 521 1600 521C1706.7 521 1813.3 521 1866.7 521L1920 521L1920 509L1866.7 490.7C1813.3 472.3 1706.7 435.7 1600 411.3C1493.3 387 1386.7 375 1280 363C1173.3 351 1066.7 339 960 360.7C853.3 382.3 746.7 437.7 640 430.7C533.3 423.7 426.7 354.3 320 348.3C213.3 342.3 106.7 399.7 53.3 428.3L0 457Z" fill="#ffffff"></path></svg>