      <svg id="visual" class="" viewBox="0 0 1920 830" width="1920" height="830" xmlns="http://www.w3.org/2000/svg" xmlns:xlink="http://www.w3.org/1999/xlink" version="1.1"><path d="M0 553L29.2 567.2C58.3 581.3 116.7 609.7 174.8 625.8C233 642 291 646 349.2 634C407.3 622 465.7 594 523.8 580.8C582 567.7 640 569.3 698.2 565.3C756.3 561.3 814.7 551.7 872.8 563.8C931 576 989 610 1047.2 619.5C1105.3 629 1163.7 614 1221.8 609C1280 604 1338 609 1396.2 603.7C1454.3 598.3 1512.7 582.7 1570.8 572.7C1629 562.7 1687 558.3 1745.2 564.7C1803.3 571 1861.7 588 1890.8 596.5L1920 605L1920 831L1890.8 831C1861.7 831 1803.3 831 1745.2 831C1687 831 1629 831 1570.8 831C1512.7 831 1454.3 831 1396.2 831C1338 831 1280 831 1221.8 831C1163.7 831 1105.3 831 1047.2 831C989 831 931 831 872.8 831C814.7 831 756.3 831 698.2 831C640 831 582 831 523.8 831C465.7 831 407.3 831 349.2 831C291 831 233 831 174.8 831C116.7 831 58.3 831 29.2 831L0 831Z" fill="#94ffdb"></path><path d="M0 597L29.2 614.7C58.3 632.3 116.7 667.7 174.8 677.2C233 686.7 291 670.3 349.2 667.3C407.3 664.3 465.7 674.7 523.8 673.2C582 671.7 640 658.3 698.2 649.2C756.3 640 814.7 635 872.8 629.7C931 624.3 989 618.7 1047.2 629C1105.3 639.3 1163.7 665.7 1221.8 666.7C1280 667.7 1338 643.3 1396.2 640.5C1454.3 637.7 1512.7 656.3 1570.8 656.2C1629 656 1687 637 1745.2 637C1803.3 637 1861.7 656 1890.8 665.5L1920 675L1920 831L1890.8 831C1861.7 831 1803.3 831 1745.2 831C1687 831 1629 831 1570.8 831C1512.7 831 1454.3 831 1396.2 831C1338 831 1280 831 1221.8 831C1163.7 831 1105.3 831 1047.2 831C989 831 931 831 872.8 831C814.7 831 756.3 831 698.2 831C640 831 582 831 523.8 831C465.7 831 407.3 831 349.2 831C291 831 233 831 174.8 831C116.7 831 58.3 831 29.2 831L0 831Z" fill="#73dcba"></path><path d="M0 649L29.2 663.3C58.3 677.7 116.7 706.3 174.8 711C233 715.7 291 696.3 349.2 692.2C407.3 688 465.7 699 523.8 694.5C582 690 640 670 698.2 671C756.3 672 814.7 694 872.8 705.2C931 716.3 989 716.7 1047.2 706.3C1105.3 696 1163.7 675 1221.8 670.5C1280 666 1338 678 1396.2 684.5C1454.3 691 1512.7 692 1570.8 687.5C1629 683 1687 673 1745.2 672.7C1803.3 672.3 1861.7 681.7 1890.8 686.3L1920 691L1920 831L1890.8 831C1861.7 831 1803.3 831 1745.2 831C1687 831 1629 831 1570.8 831C1512.7 831 1454.3 831 1396.2 831C1338 831 1280 831 1221.8 831C1163.7 831 1105.3 831 1047.2 831C989 831 931 831 872.8 831C814.7 831 756.3 831 698.2 831C640 831 582 831 523.8 831C465.7 831 407.3 831 349.2 831C291 831 233 831 174.8 831C116.7 831 58.3 831 29.2 831L0 831Z" fill="#53b99a"></path><path d="M0 745L29.2 747C58.3 749 116.7 753 174.8 746.8C233 740.7 291 724.3 349.2 717.7C407.3 711 465.7 714 523.8 711.7C582 709.3 640 701.7 698.2 703C756.3 704.3 814.7 714.7 872.8 721.2C931 727.7 989 730.3 1047.2 735.2C1105.3 740 1163.7 747 1221.8 753.7C1280 760.3 1338 766.7 1396.2 765.7C1454.3 764.7 1512.7 756.3 1570.8 752.7C1629 749 1687 750 1745.2 754C1803.3 758 1861.7 765 1890.8 768.5L1920 772L1920 831L1890.8 831C1861.7 831 1803.3 831 1745.2 831C1687 831 1629 831 1570.8 831C1512.7 831 1454.3 831 1396.2 831C1338 831 1280 831 1221.8 831C1163.7 831 1105.3 831 1047.2 831C989 831 931 831 872.8 831C814.7 831 756.3 831 698.2 831C640 831 582 831 523.8 831C465.7 831 407.3 831 349.2 831C291 831 233 831 174.8 831C116.7 831 58.3 831 29.2 831L0 831Z" fill="#31977b"></path><path d="M0 801L29.2 792.8C58.3 784.7 116.7 768.3 174.8 764.5C233 760.7 291 769.3 349.2 774.3C407.3 779.3 465.7 780.7 523.8 785.2C582 789.7 640 797.3 698.2 792.8C756.3 788.3 814.7 771.7 872.8 770.3C931 769 989 783 1047.2 782.7C1105.3 782.3 1163.7 767.7 1221.8 767C1280 766.3 1338 779.7 1396.2 781.8C1454.3 784 1512.7 775 1570.8 769.2C1629 763.3 1687 760.7 1745.2 766.7C1803.3 772.7 1861.7 787.3 1890.8 794.7L1920 802L1920 831L1890.8 831C1861.7 831 1803.3 831 1745.2 831C1687 831 1629 831 1570.8 831C1512.7 831 1454.3 831 1396.2 831C1338 831 1280 831 1221.8 831C1163.7 831 1105.3 831 1047.2 831C989 831 931 831 872.8 831C814.7 831 756.3 831 698.2 831C640 831 582 831 523.8 831C465.7 831 407.3 831 349.2 831C291 831 233 831 174.8 831C116.7 831 58.3 831 29.2 831L0 831Z" fill="#00775d"></path></svg>
