<svg id="visual" viewBox="0 0 960 540" width="960" height="540" xmlns="http://www.w3.org/2000/svg" xmlns:xlink="http://www.w3.org/1999/xlink" version="1.1"><g><g transform="translate(155 123)"><path d="M0 -84.2L72.9 -42.1L72.9 42.1L0 84.2L-72.9 42.1L-72.9 -42.1Z" fill="#00785e"></path></g><g transform="translate(561 231)"><path d="M0 -36L31.2 -18L31.2 18L0 36L-31.2 18L-31.2 -18Z" fill="#00785e"></path></g><g transform="translate(700 98)"><path d="M0 -46L39.8 -23L39.8 23L0 46L-39.8 23L-39.8 -23Z" fill="#00785e"></path></g><g transform="translate(428 100)"><path d="M0 -82L71 -41L71 41L0 82L-71 41L-71 -41Z" fill="#00785e"></path></g><g transform="translate(497 388)"><path d="M0 -82L71 -41L71 41L0 82L-71 41L-71 -41Z" fill="#00785e"></path></g><g transform="translate(839 354)"><path d="M0 -54L46.8 -27L46.8 27L0 54L-46.8 27L-46.8 -27Z" fill="#00785e"></path></g><g transform="translate(121 440)"><path d="M0 -46L39.8 -23L39.8 23L0 46L-39.8 23L-39.8 -23Z" fill="#00785e"></path></g><g transform="translate(221 300)"><path d="M0 -45L39 -22.5L39 22.5L0 45L-39 22.5L-39 -22.5Z" fill="#00785e"></path></g><g transform="translate(686 449)"><path d="M0 -57L49.4 -28.5L49.4 28.5L0 57L-49.4 28.5L-49.4 -28.5Z" fill="#00785e"></path></g></g></svg>