<svg id="visual" class="" viewBox="0 0 1920 830" width="1920" height="830" xmlns="http://www.w3.org/2000/svg" xmlns:xlink="http://www.w3.org/1999/xlink" version="1.1"><rect x="0" y="0" width="1920" height="830" fill="#ffffff"></rect><defs><linearGradient id="grad1_0" x1="56.8%" y1="0%" x2="100%" y2="100%"><stop offset="3.7349397590361484%" stop-color="#009272" stop-opacity="1"></stop><stop offset="96.26506024096385%" stop-color="#009272" stop-opacity="1"></stop></linearGradient></defs><defs><linearGradient id="grad1_1" x1="56.8%" y1="0%" x2="100%" y2="100%"><stop offset="3.7349397590361484%" stop-color="#009272" stop-opacity="1"></stop><stop offset="96.26506024096385%" stop-color="#95c9b6" stop-opacity="1"></stop></linearGradient></defs><defs><linearGradient id="grad1_2" x1="56.8%" y1="0%" x2="100%" y2="100%"><stop offset="3.7349397590361484%" stop-color="#ffffff" stop-opacity="1"></stop><stop offset="96.26506024096385%" stop-color="#95c9b6" stop-opacity="1"></stop></linearGradient></defs><defs><linearGradient id="grad2_0" x1="0%" y1="0%" x2="43.2%" y2="100%"><stop offset="3.7349397590361484%" stop-color="#009272" stop-opacity="1"></stop><stop offset="96.26506024096385%" stop-color="#009272" stop-opacity="1"></stop></linearGradient></defs><defs><linearGradient id="grad2_1" x1="0%" y1="0%" x2="43.2%" y2="100%"><stop offset="3.7349397590361484%" stop-color="#95c9b6" stop-opacity="1"></stop><stop offset="96.26506024096385%" stop-color="#009272" stop-opacity="1"></stop></linearGradient></defs><defs><linearGradient id="grad2_2" x1="0%" y1="0%" x2="43.2%" y2="100%"><stop offset="3.7349397590361484%" stop-color="#95c9b6" stop-opacity="1"></stop><stop offset="96.26506024096385%" stop-color="#ffffff" stop-opacity="1"></stop></linearGradient></defs><g transform="translate(1920, 0)"><path d="M0 705.5C-90.8 681.2 -181.5 656.8 -254.1 613.5C-326.7 570.1 -381.1 507.6 -451.1 451.1C-521.2 394.7 -606.8 344.2 -651.8 270C-696.8 195.8 -701.1 97.9 -705.5 0L0 0Z" fill="#cae4da"></path><path d="M0 470.3C-60.5 454.1 -121 437.9 -169.4 409C-217.8 380 -254.1 338.4 -300.8 300.8C-347.4 263.1 -404.5 229.4 -434.5 180C-464.5 130.5 -467.4 65.3 -470.3 0L0 0Z" fill="#5ead93"></path><path d="M0 235.2C-30.3 227.1 -60.5 218.9 -84.7 204.5C-108.9 190 -127 169.2 -150.4 150.4C-173.7 131.6 -202.3 114.7 -217.3 90C-232.3 65.3 -233.7 32.6 -235.2 0L0 0Z" fill="#009272"></path></g><g transform="translate(0, 830)"><path d="M0 -705.5C100.2 -705.3 200.4 -705.2 270 -651.8C339.6 -598.4 378.6 -491.7 412.2 -412.2C445.8 -332.7 474 -280.4 522 -216.2C570 -152 637.7 -76 705.5 0L0 0Z" fill="#cae4da"></path><path d="M0 -470.3C66.8 -470.2 133.6 -470.1 180 -434.5C226.4 -398.9 252.4 -327.8 274.8 -274.8C297.2 -221.8 316 -186.9 348 -144.1C380 -101.4 425.2 -50.7 470.3 0L0 0Z" fill="#5ead93"></path><path d="M0 -235.2C33.4 -235.1 66.8 -235.1 90 -217.3C113.2 -199.5 126.2 -163.9 137.4 -137.4C148.6 -110.9 158 -93.5 174 -72.1C190 -50.7 212.6 -25.3 235.2 0L0 0Z" fill="#009272"></path></g></svg>
