<svg xmlns="http://www.w3.org/2000/svg" width="1920" height="830"><path fill="#fff" d="M0 0h1920v830H0z"/><path fill="#cae4da" d="M1920 705.5c-90.8-24.3-181.5-48.7-254.1-92-72.6-43.4-127-105.9-197-162.4-70.1-56.4-155.7-106.9-200.7-181.1s-49.3-172.1-53.7-270H1920z"/><path fill="#5ead93" d="M1920 470.3c-60.5-16.2-121-32.4-169.4-61.3-48.4-29-84.7-70.6-131.4-108.2-46.6-37.7-103.7-71.4-133.7-120.8-30-49.5-32.9-114.7-35.8-180H1920z"/><path fill="#009272" d="M1920 235.2c-30.3-8.1-60.5-16.3-84.7-30.7-24.2-14.5-42.3-35.3-65.7-54.1-23.3-18.8-51.9-35.7-66.9-60.4s-16.4-57.4-17.9-90H1920z"/><path fill="#cae4da" d="M0 124.5c100.2.2 200.4.3 270 53.7s108.6 160.1 142.2 239.6S474 549.6 522 613.8 637.7 754 705.5 830H0z"/><path fill="#5ead93" d="M0 359.7c66.8.1 133.6.2 180 35.8s72.4 106.7 94.8 159.7S316 643.1 348 685.9c32 42.7 77.2 93.4 122.3 144.1H0z"/><path fill="#009272" d="M0 594.8c33.4.1 66.8.1 90 17.9s36.2 53.4 47.4 79.9 20.6 43.9 36.6 65.3 38.6 46.8 61.2 72.1H0z"/></svg>